<?xml version="1.0" encoding="UTF-8"?>
<svg xmlns="http://www.w3.org/2000/svg" xmlns:xlink="http://www.w3.org/1999/xlink" width="20px" height="20px" viewBox="0 0 20 20" version="1.1">
<g id="surface1">
<path style=" stroke:none;fill-rule:nonzero;fill:rgb(29.803923%,76.47059%,94.901961%);fill-opacity:1;" d="M 12.980469 1.851562 L 14.222656 0.609375 L 15.667969 2.054688 L 11.898438 5.824219 L 12.105469 6.03125 L 10.863281 7.273438 L 10.65625 7.066406 L 8.238281 9.484375 L 7.589844 7.65625 L 8.46875 6.773438 L 9.296875 7.605469 L 12.136719 4.765625 L 11.308594 3.933594 L 13.1875 2.058594 Z M 12.980469 1.851562 "/>
<path style=" stroke:none;fill-rule:nonzero;fill:rgb(81.176472%,94.509804%,100%);fill-opacity:1;" d="M 3.34375 11.902344 L 5.058594 10.1875 L 5.707031 12.015625 L 4.582031 13.140625 Z M 3.34375 11.902344 "/>
<path style=" stroke:none;fill-rule:nonzero;fill:rgb(81.176472%,94.509804%,100%);fill-opacity:1;" d="M 9.957031 11.152344 C 10.464844 11.53125 11.015625 11.523438 11.5625 11.136719 L 11.140625 10.714844 C 10.824219 10.910156 10.582031 10.871094 10.375 10.734375 L 11.667969 9.441406 L 12.300781 10.839844 L 10.539062 12.601562 L 9.6875 11.425781 Z M 9.957031 11.152344 "/>
<path style=" stroke:none;fill-rule:nonzero;fill:rgb(29.803923%,76.47059%,94.901961%);fill-opacity:1;" d="M 12.707031 16.597656 L 10.191406 19.113281 L 6.75 14.363281 L 9.265625 11.847656 Z M 12.707031 16.597656 "/>
<path style=" stroke:none;fill-rule:nonzero;fill:rgb(100%,100%,100%);fill-opacity:1;" d="M 9.730469 15.773438 C 9.808594 15.773438 9.882812 15.742188 9.9375 15.6875 C 9.992188 15.632812 10.023438 15.558594 10.023438 15.480469 C 10.023438 15.402344 9.992188 15.328125 9.9375 15.273438 C 9.882812 15.21875 9.808594 15.1875 9.730469 15.1875 C 9.652344 15.1875 9.578125 15.21875 9.523438 15.273438 C 9.46875 15.328125 9.4375 15.402344 9.4375 15.480469 C 9.4375 15.558594 9.46875 15.632812 9.523438 15.6875 C 9.578125 15.742188 9.652344 15.773438 9.730469 15.773438 Z M 9.730469 15.773438 "/>
<path style=" stroke:none;fill-rule:nonzero;fill:rgb(3.921569%,33.333334%,49.803922%);fill-opacity:1;" d="M 7.496094 14.390625 L 10.265625 18.210938 L 11.941406 16.535156 L 9.171875 12.714844 Z M 10.335938 17.3125 L 8.265625 14.453125 L 9.101562 13.617188 L 11.171875 16.476562 Z M 10.335938 17.3125 "/>
<path style=" stroke:none;fill-rule:nonzero;fill:rgb(3.921569%,33.333334%,49.803922%);fill-opacity:1;" d="M 15.210938 7.929688 L 17.070312 6.070312 L 17.484375 6.484375 L 15.625 8.34375 Z M 15.210938 7.929688 "/>
<path style=" stroke:none;fill-rule:nonzero;fill:rgb(3.921569%,33.333334%,49.803922%);fill-opacity:1;" d="M 14.382812 8.761719 L 14.796875 8.347656 L 15.210938 8.761719 L 14.796875 9.175781 Z M 14.382812 8.761719 "/>
<path style=" stroke:none;fill-rule:nonzero;fill:rgb(3.921569%,33.333334%,49.803922%);fill-opacity:1;" d="M 11.070312 6.652344 L 11.484375 6.238281 L 11.898438 6.652344 L 11.484375 7.066406 Z M 11.070312 6.652344 "/>
<path style=" stroke:none;fill-rule:nonzero;fill:rgb(3.921569%,33.333334%,49.803922%);fill-opacity:1;" d="M 6.308594 5.25 L 8.167969 3.390625 L 8.582031 3.804688 L 6.722656 5.664062 Z M 6.308594 5.25 "/>
<path style=" stroke:none;fill-rule:nonzero;fill:rgb(3.921569%,33.333334%,49.803922%);fill-opacity:1;" d="M 5.480469 6.078125 L 5.894531 5.664062 L 6.308594 6.078125 L 5.894531 6.492188 Z M 5.480469 6.078125 "/>
<path style=" stroke:none;fill-rule:nonzero;fill:rgb(3.921569%,33.333334%,49.803922%);fill-opacity:1;" d="M 13.1875 1.230469 L 13.601562 0.816406 L 14.015625 1.230469 L 13.601562 1.644531 Z M 13.1875 1.230469 "/>
<path style=" stroke:none;fill-rule:nonzero;fill:rgb(100%,100%,100%);fill-opacity:1;" d="M 8.886719 6.359375 L 10.894531 4.351562 L 11.308594 4.765625 L 9.300781 6.773438 Z M 8.886719 6.359375 "/>
<path style=" stroke:none;fill-rule:nonzero;fill:rgb(3.921569%,33.333334%,49.803922%);fill-opacity:1;" d="M 14.429688 -0.0117188 L 14.015625 0.402344 L 15.667969 2.054688 L 11.898438 5.824219 L 12.3125 6.238281 L 14.921875 3.628906 L 15.789062 4.496094 L 6.300781 13.984375 L 5.09375 13.460938 L 11.070312 7.484375 L 10.65625 7.070312 L 8.238281 9.488281 L 7.589844 7.65625 L 8.46875 6.777344 L 9.296875 7.605469 L 12.136719 4.765625 L 11.308594 3.9375 L 13.183594 2.0625 L 12.769531 1.648438 L 2.511719 11.902344 L 4.410156 13.800781 L 6.171875 14.566406 L 10.117188 20.007812 L 13.472656 16.652344 L 10.886719 13.085938 L 13.003906 10.96875 L 12.113281 9 L 16.617188 4.496094 L 15.335938 3.214844 L 16.496094 2.054688 Z M 10.894531 4.351562 L 11.308594 4.765625 L 9.296875 6.773438 L 8.882812 6.359375 Z M 7.132812 8.113281 L 7.78125 9.941406 L 7.203125 10.519531 L 6.554688 8.691406 Z M 6.09375 9.148438 L 6.742188 10.976562 L 6.164062 11.554688 L 5.515625 9.726562 Z M 4.582031 13.140625 L 3.34375 11.902344 L 5.058594 10.1875 L 5.707031 12.015625 Z M 12.707031 16.597656 L 10.191406 19.113281 L 6.75 14.363281 L 9.265625 11.847656 Z M 12.300781 10.839844 L 10.539062 12.601562 L 9.6875 11.425781 L 9.960938 11.152344 C 10.46875 11.53125 11.019531 11.523438 11.566406 11.136719 L 11.144531 10.714844 C 10.828125 10.910156 10.585938 10.871094 10.378906 10.734375 L 11.671875 9.441406 Z M 12.300781 10.839844 "/>
</g>
</svg>
